<svg width="1920" height="4884" viewBox="0 0 1920 4884" fill="none" xmlns="http://www.w3.org/2000/svg">
<g clip-path="url(#clip0_169_2)">
<rect width="1920" height="4884" fill="#FFF4DD"/>
<g filter="url(#filter0_f_169_2)">
<path d="M184 413H-144V1432H184V413Z" fill="#FFF351" fill-opacity="0.5"/>
</g>
<g filter="url(#filter1_f_169_2)">
<path d="M184 4131H-144V5150H184V4131Z" fill="#FFF351" fill-opacity="0.5"/>
</g>
<path d="M-80.0008 3762.38L-75.5684 4390.37L120.427 4388.98L115.994 3761L-80.0008 3762.38Z" fill="#F40010"/>
<g filter="url(#filter2_f_169_2)">
<path d="M1148 3684H1334.21L1727 4314H1540.79L1148 3684Z" fill="#FF0011" fill-opacity="0.5"/>
</g>
<g filter="url(#filter3_f_169_2)">
<path d="M1272 3349H1458.21L1851 3979H1664.79L1272 3349Z" fill="#FFC428" fill-opacity="0.5"/>
</g>
<g filter="url(#filter4_f_169_2)">
<path d="M507 3443H237V4035H507V3443Z" fill="white" fill-opacity="0.5"/>
</g>
<path d="M-91.4829 3802.82L-87.2285 4405.58L97.4549 4404.28L93.2005 3801.52L-91.4829 3802.82Z" stroke="white" stroke-opacity="0.6" stroke-width="5"/>
<path d="M281.318 3952.71C273.376 3945.46 262.904 3941.65 252.204 3942.1C241.505 3942.55 231.455 3947.23 224.266 3955.12C217.077 3963 213.336 3973.44 213.868 3984.13C214.4 3994.83 219.161 4004.91 227.103 4012.15L237.268 4001C232.304 3996.48 229.329 3990.18 228.997 3983.49C228.664 3976.81 231.002 3970.29 235.495 3965.36C239.988 3960.43 246.269 3957.51 252.956 3957.22C259.644 3956.94 266.189 3959.33 271.152 3963.85L281.318 3952.71Z" fill="#FFF353"/>
<path d="M1664 4210C1640.13 4210 1617.24 4219.48 1600.36 4236.36C1583.48 4253.24 1574 4276.13 1574 4300C1574 4323.87 1583.48 4346.76 1600.36 4363.64C1617.24 4380.52 1640.13 4390 1664 4390V4356.25C1649.08 4356.25 1634.77 4350.32 1624.23 4339.77C1613.68 4329.23 1607.75 4314.92 1607.75 4300C1607.75 4285.08 1613.68 4270.77 1624.23 4260.23C1634.77 4249.68 1649.08 4243.75 1664 4243.75V4210Z" fill="#FFF353"/>
<path d="M1222.06 3861.18L1213.08 3855.99L1221.83 3850.88C1222.66 3850.43 1223.37 3849.76 1223.87 3848.96C1224.51 3847.94 1224.77 3846.73 1224.64 3845.54C1224.5 3844.35 1223.97 3843.24 1223.12 3842.39C1222.28 3841.54 1221.17 3840.99 1219.97 3840.84C1218.78 3840.69 1217.56 3840.94 1216.53 3841.55L1207.89 3846.64V3836.36C1207.89 3834.94 1207.32 3833.57 1206.31 3832.57C1205.3 3831.56 1203.93 3831 1202.5 3831C1201.07 3831 1199.7 3831.56 1198.69 3832.57C1197.68 3833.57 1197.11 3834.94 1197.11 3836.36V3846.64L1188.4 3841.55C1187.79 3841.14 1187.1 3840.86 1186.37 3840.72C1185.65 3840.59 1184.9 3840.61 1184.18 3840.77C1183.46 3840.94 1182.78 3841.24 1182.19 3841.68C1181.59 3842.12 1181.1 3842.67 1180.73 3843.31C1180.36 3843.94 1180.12 3844.65 1180.04 3845.37C1179.95 3846.1 1180.02 3846.84 1180.23 3847.54C1180.45 3848.25 1180.8 3848.9 1181.28 3849.46C1181.76 3850.02 1182.35 3850.47 1183.01 3850.79L1191.99 3855.99L1183.1 3861.1C1182.26 3861.55 1181.56 3862.22 1181.05 3863.02C1180.43 3864.04 1180.17 3865.24 1180.31 3866.43C1180.45 3867.61 1180.98 3868.72 1181.83 3869.57C1182.67 3870.41 1183.78 3870.96 1184.97 3871.11C1186.16 3871.26 1187.37 3871.02 1188.4 3870.41L1197.11 3865.34V3875.45C1197.07 3876.59 1197.39 3877.71 1198.04 3878.66C1198.69 3879.6 1199.62 3880.31 1200.7 3880.69C1201.52 3880.98 1202.39 3881.07 1203.25 3880.95C1204.1 3880.83 1204.92 3880.51 1205.62 3880.01C1206.32 3879.51 1206.9 3878.86 1207.29 3878.09C1207.69 3877.33 1207.89 3876.48 1207.89 3875.62V3865.34L1216.6 3870.43C1217.21 3870.84 1217.9 3871.12 1218.63 3871.26C1219.35 3871.39 1220.1 3871.37 1220.82 3871.21C1221.54 3871.04 1222.22 3870.73 1222.81 3870.3C1223.41 3869.86 1223.9 3869.31 1224.27 3868.67C1224.64 3868.04 1224.88 3867.34 1224.96 3866.61C1225.05 3865.88 1224.98 3865.14 1224.77 3864.43C1224.55 3863.73 1224.2 3863.08 1223.72 3862.52C1223.24 3861.96 1222.65 3861.51 1221.99 3861.18H1222.06ZM1220.89 3866.7C1220.77 3866.9 1220.62 3867.08 1220.43 3867.22C1220.24 3867.37 1220.02 3867.47 1219.8 3867.53C1219.57 3867.59 1219.33 3867.6 1219.1 3867.57C1218.86 3867.54 1218.64 3867.46 1218.43 3867.34L1204.3 3859.11V3875.62C1204.3 3876.1 1204.11 3876.55 1203.77 3876.89C1203.43 3877.22 1202.98 3877.41 1202.5 3877.41C1202.02 3877.41 1201.57 3877.22 1201.23 3876.89C1200.89 3876.55 1200.7 3876.1 1200.7 3875.62V3859.11L1186.57 3867.34C1186.16 3867.52 1185.7 3867.55 1185.28 3867.42C1184.86 3867.28 1184.5 3867 1184.28 3866.61C1184.05 3866.23 1183.98 3865.78 1184.07 3865.35C1184.16 3864.92 1184.41 3864.53 1184.77 3864.27L1198.91 3855.99L1184.72 3847.71C1184.49 3847.61 1184.28 3847.45 1184.12 3847.27C1183.95 3847.08 1183.82 3846.86 1183.75 3846.62C1183.67 3846.39 1183.65 3846.14 1183.67 3845.89C1183.7 3845.64 1183.78 3845.4 1183.91 3845.18C1184.03 3844.97 1184.2 3844.78 1184.41 3844.63C1184.61 3844.49 1184.84 3844.39 1185.09 3844.33C1185.33 3844.28 1185.59 3844.28 1185.83 3844.33C1186.08 3844.39 1186.31 3844.49 1186.51 3844.64L1200.7 3852.87V3836.36C1200.7 3835.88 1200.89 3835.43 1201.23 3835.09C1201.57 3834.76 1202.02 3834.57 1202.5 3834.57C1202.98 3834.57 1203.43 3834.76 1203.77 3835.09C1204.11 3835.43 1204.3 3835.88 1204.3 3836.36V3852.87L1218.43 3844.62C1218.84 3844.44 1219.3 3844.41 1219.72 3844.55C1220.14 3844.68 1220.5 3844.97 1220.72 3845.35C1220.95 3845.73 1221.02 3846.18 1220.93 3846.61C1220.84 3847.05 1220.59 3847.43 1220.23 3847.69L1206.09 3855.99L1220.28 3864.27C1220.68 3864.52 1220.97 3864.91 1221.09 3865.36C1221.2 3865.82 1221.13 3866.3 1220.89 3866.7Z" fill="#FF6E00"/>
<path d="M-80.0008 44.3836L-75.5684 672.368L120.427 670.985L115.994 43.0002L-80.0008 44.3836Z" fill="#F40010"/>
<g filter="url(#filter5_f_169_2)">
<path d="M1136 -18H1322.21L1715 612H1528.79L1136 -18Z" fill="#FF0011" fill-opacity="0.5"/>
</g>
<g filter="url(#filter6_f_169_2)">
<path d="M1260 -353H1446.21L1839 277H1652.79L1260 -353Z" fill="#FFC428" fill-opacity="0.5"/>
</g>
<path d="M167.794 1149.79H152V1157.69H175.69V1134H167.794V1149.79Z" fill="#FF6E00"/>
<path d="M211.227 1149.79H195.434V1157.69H219.124V1134H211.227V1149.79Z" fill="#FF6E00"/>
<path d="M254.659 1134V1149.79H238.865V1157.69H262.556V1134H254.659Z" fill="#FF6E00"/>
<path d="M167.794 1193.23H152V1201.12H175.69V1177.43H167.794V1193.23Z" fill="#FF6E00"/>
<path d="M211.227 1193.23H195.434V1201.12H219.124V1177.43H211.227V1193.23Z" fill="#FF6E00"/>
<path d="M254.659 1193.23H238.865V1201.12H262.556V1177.43H254.659V1193.23Z" fill="#FF6E00"/>
<path d="M167.794 1236.66H152V1244.55H175.69V1220.86H167.794V1236.66Z" fill="#FF6E00"/>
<path d="M211.227 1236.66H195.434V1244.55H219.124V1220.86H211.227V1236.66Z" fill="#FF6E00"/>
<path d="M254.659 1236.66H238.865V1244.55H262.556V1220.86H254.659V1236.66Z" fill="#FF6E00"/>
<g filter="url(#filter7_f_169_2)">
<path d="M507 -275H237V317H507V-275Z" fill="white" fill-opacity="0.5"/>
</g>
<path d="M541 -72H-51V113H541V-72Z" fill="#FFF351"/>
<path d="M-91.4829 84.821L-87.2285 687.581L97.4549 686.277L93.2005 83.5174L-91.4829 84.821Z" stroke="white" stroke-opacity="0.6" stroke-width="5"/>
<path d="M504.5 -32.0153H-63.4336V142.027H504.5V-32.0153Z" stroke="white" stroke-opacity="0.6" stroke-width="5"/>
<path d="M281.318 234.708C273.376 227.465 262.904 223.649 252.204 224.101C241.505 224.553 231.455 229.235 224.266 237.117C217.077 245 213.336 255.437 213.868 266.132C214.4 276.828 219.161 286.906 227.103 294.149L237.268 283.004C232.304 278.477 229.329 272.178 228.997 265.494C228.664 258.809 231.002 252.286 235.495 247.359C239.988 242.433 246.269 239.506 252.956 239.224C259.644 238.941 266.189 241.326 271.152 245.853L281.318 234.708Z" fill="#FFF353"/>
<path d="M1773.29 1203.84H1563.38L1668.34 1016.49L1773.29 1203.84Z" fill="#F40010"/>
<path d="M1757.33 1098.92C1750.92 1098.93 1744.54 1099.59 1738.27 1100.89L1789.64 1192.81L1805.22 1220.7H1667.96C1679.93 1258.66 1715.46 1286.27 1757.33 1286.27C1808.98 1286.27 1851 1244.24 1851 1192.59C1851 1140.95 1808.98 1098.92 1757.33 1098.92Z" fill="#FFF351"/>
<path fill-rule="evenodd" clip-rule="evenodd" d="M1898.5 889.312C1909.85 889.312 1920.74 884.802 1928.77 876.773C1936.8 868.744 1941.31 857.855 1941.31 846.5C1941.31 835.145 1936.8 824.256 1928.77 816.227C1920.74 808.198 1909.85 803.688 1898.5 803.688C1887.15 803.688 1876.26 808.198 1868.23 816.227C1860.2 824.256 1855.69 835.145 1855.69 846.5C1855.69 857.855 1860.2 868.744 1868.23 876.773C1876.26 884.802 1887.15 889.312 1898.5 889.312ZM1898.5 915C1916.67 915 1934.09 907.783 1946.94 894.937C1959.78 882.091 1967 864.667 1967 846.5C1967 828.333 1959.78 810.909 1946.94 798.063C1934.09 785.217 1916.67 778 1898.5 778C1880.33 778 1862.91 785.217 1850.06 798.063C1837.22 810.909 1830 828.333 1830 846.5C1830 864.667 1837.22 882.091 1850.06 894.937C1862.91 907.783 1880.33 915 1898.5 915Z" fill="#FF6E00"/>
<path d="M1664 492C1640.13 492 1617.24 501.482 1600.36 518.36C1583.48 535.239 1574 558.131 1574 582C1574 605.869 1583.48 628.761 1600.36 645.64C1617.24 662.518 1640.13 672 1664 672V638.25C1649.08 638.25 1634.77 632.324 1624.23 621.775C1613.68 611.226 1607.75 596.918 1607.75 582C1607.75 567.082 1613.68 552.774 1624.23 542.225C1634.77 531.676 1649.08 525.75 1664 525.75V492Z" fill="#FFF353"/>
<path d="M1222.06 143.184L1213.08 137.99L1221.83 132.885C1222.66 132.427 1223.37 131.763 1223.87 130.957C1224.51 129.937 1224.77 128.735 1224.64 127.545C1224.5 126.355 1223.97 125.244 1223.12 124.391C1222.28 123.538 1221.17 122.991 1219.97 122.839C1218.78 122.686 1217.56 122.936 1216.53 123.549L1207.89 128.636V118.355C1207.89 116.935 1207.32 115.573 1206.31 114.568C1205.3 113.564 1203.93 113 1202.5 113C1201.07 113 1199.7 113.564 1198.69 114.568C1197.68 115.573 1197.11 116.935 1197.11 118.355V128.636L1188.4 123.549C1187.79 123.139 1187.1 122.858 1186.37 122.724C1185.65 122.59 1184.9 122.606 1184.18 122.771C1183.46 122.935 1182.78 123.245 1182.19 123.682C1181.59 124.118 1181.1 124.67 1180.73 125.305C1180.36 125.941 1180.12 126.645 1180.04 127.374C1179.95 128.103 1180.02 128.842 1180.23 129.544C1180.45 130.246 1180.8 130.897 1181.28 131.457C1181.76 132.016 1182.35 132.472 1183.01 132.795L1191.99 137.99L1183.1 143.095C1182.26 143.553 1181.56 144.216 1181.05 145.022C1180.43 146.043 1180.17 147.24 1180.31 148.426C1180.45 149.611 1180.98 150.716 1181.83 151.565C1182.67 152.414 1183.78 152.958 1184.97 153.112C1186.16 153.265 1187.37 153.019 1188.4 152.412L1197.11 147.343V157.446C1197.07 158.587 1197.39 159.712 1198.04 160.656C1198.69 161.6 1199.62 162.314 1200.7 162.694C1201.52 162.98 1202.39 163.067 1203.25 162.949C1204.1 162.83 1204.92 162.508 1205.62 162.011C1206.32 161.514 1206.9 160.856 1207.29 160.093C1207.69 159.329 1207.89 158.483 1207.89 157.624V147.343L1216.6 152.43C1217.21 152.84 1217.9 153.121 1218.63 153.255C1219.35 153.389 1220.1 153.373 1220.82 153.209C1221.54 153.044 1222.22 152.734 1222.81 152.298C1223.41 151.862 1223.9 151.309 1224.27 150.674C1224.64 150.039 1224.88 149.335 1224.96 148.606C1225.05 147.876 1224.98 147.138 1224.77 146.435C1224.55 145.733 1224.2 145.082 1223.72 144.523C1223.24 143.963 1222.65 143.508 1221.99 143.184H1222.06ZM1220.89 148.7C1220.77 148.903 1220.62 149.08 1220.43 149.223C1220.24 149.365 1220.02 149.469 1219.8 149.528C1219.57 149.588 1219.33 149.602 1219.1 149.57C1218.86 149.538 1218.64 149.461 1218.43 149.342L1204.3 141.113V157.624C1204.3 158.098 1204.11 158.552 1203.77 158.887C1203.43 159.221 1202.98 159.409 1202.5 159.409C1202.02 159.409 1201.57 159.221 1201.23 158.887C1200.89 158.552 1200.7 158.098 1200.7 157.624V141.113L1186.57 149.342C1186.16 149.524 1185.7 149.55 1185.28 149.416C1184.86 149.281 1184.5 148.995 1184.28 148.613C1184.05 148.231 1183.98 147.78 1184.07 147.347C1184.16 146.915 1184.41 146.532 1184.77 146.272L1198.91 137.99L1184.72 129.707C1184.49 129.605 1184.28 129.455 1184.12 129.269C1183.95 129.082 1183.82 128.863 1183.75 128.625C1183.67 128.387 1183.65 128.136 1183.67 127.888C1183.7 127.639 1183.78 127.4 1183.91 127.184C1184.03 126.968 1184.2 126.781 1184.41 126.634C1184.61 126.488 1184.84 126.386 1185.09 126.334C1185.33 126.283 1185.59 126.283 1185.83 126.335C1186.08 126.387 1186.31 126.49 1186.51 126.637L1200.7 134.866V118.355C1200.7 117.882 1200.89 117.428 1201.23 117.093C1201.57 116.758 1202.02 116.57 1202.5 116.57C1202.98 116.57 1203.43 116.758 1203.77 117.093C1204.11 117.428 1204.3 117.882 1204.3 118.355V134.866L1218.43 126.619C1218.84 126.437 1219.3 126.411 1219.72 126.546C1220.14 126.681 1220.5 126.967 1220.72 127.349C1220.95 127.731 1221.02 128.182 1220.93 128.614C1220.84 129.046 1220.59 129.43 1220.23 129.69L1206.09 137.99L1220.28 146.272C1220.68 146.516 1220.97 146.908 1221.09 147.362C1221.2 147.816 1221.13 148.296 1220.89 148.7Z" fill="#FF6E00"/>
<path d="M1222.06 1853.18L1213.08 1847.99L1221.83 1842.88C1222.66 1842.43 1223.37 1841.76 1223.87 1840.96C1224.51 1839.94 1224.77 1838.73 1224.64 1837.54C1224.5 1836.35 1223.97 1835.24 1223.12 1834.39C1222.28 1833.54 1221.17 1832.99 1219.97 1832.84C1218.78 1832.69 1217.56 1832.94 1216.53 1833.55L1207.89 1838.64V1828.36C1207.89 1826.94 1207.32 1825.57 1206.31 1824.57C1205.3 1823.56 1203.93 1823 1202.5 1823C1201.07 1823 1199.7 1823.56 1198.69 1824.57C1197.68 1825.57 1197.11 1826.94 1197.11 1828.36V1838.64L1188.4 1833.55C1187.79 1833.14 1187.1 1832.86 1186.37 1832.72C1185.65 1832.59 1184.9 1832.61 1184.18 1832.77C1183.46 1832.94 1182.78 1833.24 1182.19 1833.68C1181.59 1834.12 1181.1 1834.67 1180.73 1835.31C1180.36 1835.94 1180.12 1836.65 1180.04 1837.37C1179.95 1838.1 1180.02 1838.84 1180.23 1839.54C1180.45 1840.25 1180.8 1840.9 1181.28 1841.46C1181.76 1842.02 1182.35 1842.47 1183.01 1842.79L1191.99 1847.99L1183.1 1853.1C1182.26 1853.55 1181.56 1854.22 1181.05 1855.02C1180.43 1856.04 1180.17 1857.24 1180.31 1858.43C1180.45 1859.61 1180.98 1860.72 1181.83 1861.57C1182.67 1862.41 1183.78 1862.96 1184.97 1863.11C1186.16 1863.26 1187.37 1863.02 1188.4 1862.41L1197.11 1857.34V1867.45C1197.07 1868.59 1197.39 1869.71 1198.04 1870.66C1198.69 1871.6 1199.62 1872.31 1200.7 1872.69C1201.52 1872.98 1202.39 1873.07 1203.25 1872.95C1204.1 1872.83 1204.92 1872.51 1205.62 1872.01C1206.32 1871.51 1206.9 1870.86 1207.29 1870.09C1207.69 1869.33 1207.89 1868.48 1207.89 1867.62V1857.34L1216.6 1862.43C1217.21 1862.84 1217.9 1863.12 1218.63 1863.26C1219.35 1863.39 1220.1 1863.37 1220.82 1863.21C1221.54 1863.04 1222.22 1862.73 1222.81 1862.3C1223.41 1861.86 1223.9 1861.31 1224.27 1860.67C1224.64 1860.04 1224.88 1859.34 1224.96 1858.61C1225.05 1857.88 1224.98 1857.14 1224.77 1856.43C1224.55 1855.73 1224.2 1855.08 1223.72 1854.52C1223.24 1853.96 1222.65 1853.51 1221.99 1853.18H1222.06ZM1220.89 1858.7C1220.77 1858.9 1220.62 1859.08 1220.43 1859.22C1220.24 1859.37 1220.02 1859.47 1219.8 1859.53C1219.57 1859.59 1219.33 1859.6 1219.1 1859.57C1218.86 1859.54 1218.64 1859.46 1218.43 1859.34L1204.3 1851.11V1867.62C1204.3 1868.1 1204.11 1868.55 1203.77 1868.89C1203.43 1869.22 1202.98 1869.41 1202.5 1869.41C1202.02 1869.41 1201.57 1869.22 1201.23 1868.89C1200.89 1868.55 1200.7 1868.1 1200.7 1867.62V1851.11L1186.57 1859.34C1186.16 1859.52 1185.7 1859.55 1185.28 1859.42C1184.86 1859.28 1184.5 1859 1184.28 1858.61C1184.05 1858.23 1183.98 1857.78 1184.07 1857.35C1184.16 1856.92 1184.41 1856.53 1184.77 1856.27L1198.91 1847.99L1184.72 1839.71C1184.49 1839.61 1184.28 1839.45 1184.12 1839.27C1183.95 1839.08 1183.82 1838.86 1183.75 1838.62C1183.67 1838.39 1183.65 1838.14 1183.67 1837.89C1183.7 1837.64 1183.78 1837.4 1183.91 1837.18C1184.03 1836.97 1184.2 1836.78 1184.41 1836.63C1184.61 1836.49 1184.84 1836.39 1185.09 1836.33C1185.33 1836.28 1185.59 1836.28 1185.83 1836.33C1186.08 1836.39 1186.31 1836.49 1186.51 1836.64L1200.7 1844.87V1828.36C1200.7 1827.88 1200.89 1827.43 1201.23 1827.09C1201.57 1826.76 1202.02 1826.57 1202.5 1826.57C1202.98 1826.57 1203.43 1826.76 1203.77 1827.09C1204.11 1827.43 1204.3 1827.88 1204.3 1828.36V1844.87L1218.43 1836.62C1218.84 1836.44 1219.3 1836.41 1219.72 1836.55C1220.14 1836.68 1220.5 1836.97 1220.72 1837.35C1220.95 1837.73 1221.02 1838.18 1220.93 1838.61C1220.84 1839.05 1220.59 1839.43 1220.23 1839.69L1206.09 1847.99L1220.28 1856.27C1220.68 1856.52 1220.97 1856.91 1221.09 1857.36C1221.2 1857.82 1221.13 1858.3 1220.89 1858.7Z" fill="#FF6E00"/>
<path d="M1508.06 989.184L1499.08 983.99L1507.83 978.885C1508.66 978.427 1509.37 977.763 1509.87 976.957C1510.51 975.937 1510.77 974.735 1510.64 973.545C1510.5 972.355 1509.97 971.244 1509.12 970.391C1508.28 969.538 1507.17 968.991 1505.97 968.839C1504.78 968.686 1503.56 968.936 1502.53 969.549L1493.89 974.636V964.355C1493.89 962.935 1493.32 961.573 1492.31 960.568C1491.3 959.564 1489.93 959 1488.5 959C1487.07 959 1485.7 959.564 1484.69 960.568C1483.68 961.573 1483.11 962.935 1483.11 964.355V974.636L1474.4 969.549C1473.79 969.139 1473.1 968.858 1472.37 968.724C1471.65 968.59 1470.9 968.606 1470.18 968.771C1469.46 968.935 1468.78 969.245 1468.19 969.682C1467.59 970.118 1467.1 970.67 1466.73 971.305C1466.36 971.941 1466.12 972.645 1466.04 973.374C1465.95 974.103 1466.02 974.842 1466.23 975.544C1466.45 976.246 1466.8 976.897 1467.28 977.457C1467.76 978.016 1468.35 978.472 1469.01 978.795L1477.99 983.99L1469.1 989.095C1468.26 989.553 1467.56 990.216 1467.05 991.022C1466.43 992.043 1466.17 993.24 1466.31 994.426C1466.45 995.611 1466.98 996.716 1467.83 997.565C1468.67 998.414 1469.78 998.958 1470.97 999.112C1472.16 999.265 1473.37 999.019 1474.4 998.412L1483.11 993.343V1003.45C1483.07 1004.59 1483.39 1005.71 1484.04 1006.66C1484.69 1007.6 1485.62 1008.31 1486.7 1008.69C1487.52 1008.98 1488.39 1009.07 1489.25 1008.95C1490.1 1008.83 1490.92 1008.51 1491.62 1008.01C1492.32 1007.51 1492.9 1006.86 1493.29 1006.09C1493.69 1005.33 1493.89 1004.48 1493.89 1003.62V993.343L1502.6 998.43C1503.21 998.84 1503.9 999.121 1504.63 999.255C1505.35 999.389 1506.1 999.373 1506.82 999.209C1507.54 999.044 1508.22 998.734 1508.81 998.298C1509.41 997.862 1509.9 997.309 1510.27 996.674C1510.64 996.039 1510.88 995.335 1510.96 994.606C1511.05 993.876 1510.98 993.138 1510.77 992.435C1510.55 991.733 1510.2 991.082 1509.72 990.523C1509.24 989.963 1508.65 989.508 1507.99 989.184H1508.06ZM1506.89 994.7C1506.77 994.903 1506.62 995.08 1506.43 995.223C1506.24 995.365 1506.02 995.469 1505.8 995.528C1505.57 995.588 1505.33 995.602 1505.1 995.57C1504.86 995.538 1504.64 995.461 1504.43 995.342L1490.3 987.113V1003.62C1490.3 1004.1 1490.11 1004.55 1489.77 1004.89C1489.43 1005.22 1488.98 1005.41 1488.5 1005.41C1488.02 1005.41 1487.57 1005.22 1487.23 1004.89C1486.89 1004.55 1486.7 1004.1 1486.7 1003.62V987.113L1472.57 995.342C1472.16 995.524 1471.7 995.55 1471.28 995.416C1470.86 995.281 1470.5 994.995 1470.28 994.613C1470.05 994.231 1469.98 993.78 1470.07 993.347C1470.16 992.915 1470.41 992.532 1470.77 992.272L1484.91 983.99L1470.72 975.707C1470.49 975.605 1470.28 975.455 1470.12 975.269C1469.95 975.082 1469.82 974.863 1469.75 974.625C1469.67 974.387 1469.65 974.136 1469.67 973.888C1469.7 973.639 1469.78 973.4 1469.91 973.184C1470.03 972.968 1470.2 972.781 1470.41 972.634C1470.61 972.488 1470.84 972.386 1471.09 972.334C1471.33 972.283 1471.59 972.283 1471.83 972.335C1472.08 972.387 1472.31 972.49 1472.51 972.637L1486.7 980.866V964.355C1486.7 963.882 1486.89 963.428 1487.23 963.093C1487.57 962.758 1488.02 962.57 1488.5 962.57C1488.98 962.57 1489.43 962.758 1489.77 963.093C1490.11 963.428 1490.3 963.882 1490.3 964.355V980.866L1504.43 972.619C1504.84 972.437 1505.3 972.411 1505.72 972.546C1506.14 972.681 1506.5 972.967 1506.72 973.349C1506.95 973.731 1507.02 974.182 1506.93 974.614C1506.84 975.046 1506.59 975.43 1506.23 975.69L1492.09 983.99L1506.28 992.272C1506.68 992.516 1506.97 992.908 1507.09 993.362C1507.2 993.816 1507.13 994.296 1506.89 994.7Z" fill="#FF6E00"/>
<path d="M236.06 891.184L227.079 885.99L235.826 880.885C236.663 880.427 237.368 879.763 237.874 878.957C238.505 877.937 238.775 876.735 238.639 875.545C238.503 874.355 237.969 873.244 237.123 872.391C236.277 871.538 235.167 870.991 233.971 870.839C232.776 870.686 231.563 870.936 230.528 871.549L221.888 876.636V866.355C221.888 864.935 221.321 863.573 220.31 862.568C219.3 861.564 217.929 861 216.5 861C215.071 861 213.7 861.564 212.69 862.568C211.679 863.573 211.112 864.935 211.112 866.355V876.636L202.401 871.549C201.788 871.139 201.097 870.858 200.371 870.724C199.645 870.59 198.899 870.606 198.179 870.771C197.46 870.935 196.782 871.245 196.187 871.682C195.593 872.118 195.096 872.67 194.726 873.305C194.355 873.941 194.121 874.645 194.036 875.374C193.951 876.103 194.018 876.842 194.232 877.544C194.447 878.246 194.804 878.897 195.282 879.457C195.761 880.016 196.349 880.472 197.012 880.795L205.993 885.99L197.102 891.095C196.265 891.553 195.56 892.216 195.055 893.022C194.431 894.043 194.169 895.24 194.309 896.426C194.449 897.611 194.983 898.716 195.827 899.565C196.671 900.414 197.776 900.958 198.967 901.112C200.158 901.265 201.367 901.019 202.401 900.412L211.112 895.343V905.446C211.069 906.587 211.395 907.712 212.041 908.656C212.687 909.6 213.62 910.314 214.704 910.694C215.518 910.98 216.39 911.067 217.245 910.949C218.101 910.83 218.915 910.508 219.619 910.011C220.324 909.514 220.898 908.856 221.292 908.093C221.687 907.329 221.892 906.483 221.888 905.624V895.343L230.599 900.43C231.212 900.84 231.903 901.121 232.629 901.255C233.355 901.389 234.101 901.373 234.821 901.209C235.54 901.044 236.218 900.734 236.813 900.298C237.407 899.862 237.904 899.309 238.274 898.674C238.645 898.039 238.879 897.335 238.964 896.606C239.049 895.876 238.982 895.138 238.768 894.435C238.553 893.733 238.196 893.082 237.718 892.523C237.239 891.963 236.651 891.508 235.988 891.184H236.06ZM234.892 896.7C234.773 896.903 234.615 897.08 234.427 897.223C234.239 897.365 234.025 897.469 233.796 897.528C233.567 897.588 233.329 897.602 233.095 897.57C232.861 897.538 232.635 897.461 232.431 897.342L218.296 889.113V905.624C218.296 906.098 218.107 906.552 217.77 906.887C217.433 907.221 216.976 907.409 216.5 907.409C216.024 907.409 215.567 907.221 215.23 906.887C214.893 906.552 214.704 906.098 214.704 905.624V889.113L200.569 897.342C200.163 897.524 199.705 897.55 199.281 897.416C198.858 897.281 198.5 896.995 198.276 896.613C198.053 896.231 197.98 895.78 198.071 895.347C198.163 894.915 198.413 894.532 198.772 894.272L212.908 885.99L198.719 877.707C198.49 877.605 198.285 877.455 198.118 877.269C197.95 877.082 197.824 876.863 197.748 876.625C197.671 876.387 197.646 876.136 197.673 875.888C197.7 875.639 197.779 875.4 197.906 875.184C198.032 874.968 198.202 874.781 198.406 874.634C198.61 874.488 198.842 874.386 199.088 874.334C199.334 874.283 199.588 874.283 199.834 874.335C200.079 874.387 200.311 874.49 200.515 874.637L214.704 882.866V866.355C214.704 865.882 214.893 865.428 215.23 865.093C215.567 864.758 216.024 864.57 216.5 864.57C216.976 864.57 217.433 864.758 217.77 865.093C218.107 865.428 218.296 865.882 218.296 866.355V882.866L232.431 874.619C232.837 874.437 233.295 874.411 233.719 874.546C234.142 874.681 234.5 874.967 234.724 875.349C234.947 875.731 235.02 876.182 234.929 876.614C234.837 877.046 234.587 877.43 234.228 877.69L220.092 885.99L234.281 894.272C234.683 894.516 234.972 894.908 235.086 895.362C235.201 895.816 235.131 896.296 234.892 896.7Z" fill="#FF6E00"/>
<g filter="url(#filter8_f_169_2)">
<path d="M1301 1451.97L1305.54 1124L2324.44 1138.09L2319.9 1466.06L1301 1451.97Z" fill="white" fill-opacity="0.5"/>
</g>
<g filter="url(#filter9_f_169_2)">
<path d="M1305 1557.48L1308.48 1306L2327.38 1320.09L2323.9 1571.57L1305 1557.48Z" fill="white" fill-opacity="0.5"/>
</g>
<g filter="url(#filter10_f_169_2)">
<path d="M507 1435H237V2027H507V1435Z" fill="white" fill-opacity="0.5"/>
</g>
<g filter="url(#filter11_f_169_2)">
<path d="M-272 1958H-85.79L307 2588H120.79L-272 1958Z" fill="#FF0011" fill-opacity="0.5"/>
</g>
<g filter="url(#filter12_f_169_2)">
<path d="M-148 1623H38.21L431 2253H244.79L-148 1623Z" fill="#FFC428" fill-opacity="0.5"/>
</g>
<path d="M421.91 3190.35H212L316.96 3003L421.91 3190.35Z" fill="#F40010"/>
<path d="M405.95 3085.43C399.54 3085.44 393.16 3086.1 386.89 3087.4L438.26 3179.32L453.84 3207.21H316.58C328.55 3245.18 364.08 3272.78 405.95 3272.78C457.6 3272.78 499.62 3230.76 499.62 3179.11C499.62 3127.46 457.6 3085.43 405.95 3085.43Z" fill="#FFF351"/>
<path d="M244 2484C220.13 2484 197.24 2493.48 180.36 2510.36C163.48 2527.24 154 2550.13 154 2574C154 2597.87 163.48 2620.76 180.36 2637.64C197.24 2654.52 220.13 2664 244 2664V2630.25C229.08 2630.25 214.77 2624.32 204.23 2613.77C193.68 2603.23 187.75 2588.92 187.75 2574C187.75 2559.08 193.68 2544.77 204.23 2534.23C214.77 2523.68 229.08 2517.75 244 2517.75V2484Z" fill="#FFF353"/>
<g filter="url(#filter13_f_169_2)">
<path d="M-119 3443.97L-114.46 3116L904.44 3130.09L899.9 3458.06L-119 3443.97Z" fill="white" fill-opacity="0.5"/>
</g>
<g filter="url(#filter14_f_169_2)">
<path d="M-115 3549.48L-111.52 3298L907.38 3312.09L903.9 3563.57L-115 3549.48Z" fill="white" fill-opacity="0.5"/>
</g>
<g filter="url(#filter15_f_169_2)">
<path d="M2064 2136H1736V3155H2064V2136Z" fill="#FFF351" fill-opacity="0.5"/>
</g>
<path d="M1800 1767.38L1804.43 2395.37L2000.43 2393.98L1995.99 1766L1800 1767.38Z" fill="#F40010"/>
<path d="M1634.79 2872.79H1619V2880.69H1642.69V2857H1634.79V2872.79Z" fill="#FF6E00"/>
<path d="M1678.23 2872.79H1662.43V2880.69H1686.12V2857H1678.23V2872.79Z" fill="#FF6E00"/>
<path d="M1721.66 2857V2872.79H1705.87V2880.69H1729.56V2857H1721.66Z" fill="#FF6E00"/>
<path d="M1634.79 2916.23H1619V2924.12H1642.69V2900.43H1634.79V2916.23Z" fill="#FF6E00"/>
<path d="M1678.23 2916.23H1662.43V2924.12H1686.12V2900.43H1678.23V2916.23Z" fill="#FF6E00"/>
<path d="M1721.66 2916.23H1705.87V2924.12H1729.56V2900.43H1721.66V2916.23Z" fill="#FF6E00"/>
<path d="M1634.79 2959.66H1619V2967.55H1642.69V2943.86H1634.79V2959.66Z" fill="#FF6E00"/>
<path d="M1678.23 2959.66H1662.43V2967.55H1686.12V2943.86H1678.23V2959.66Z" fill="#FF6E00"/>
<path d="M1721.66 2959.66H1705.87V2967.55H1729.56V2943.86H1721.66V2959.66Z" fill="#FF6E00"/>
<path d="M1788.52 1807.82L1792.77 2410.58L1977.45 2409.28L1973.2 1806.52L1788.52 1807.82Z" stroke="white" stroke-opacity="0.6" stroke-width="5"/>
<path d="M1748.32 1957.71C1740.38 1950.46 1729.9 1946.65 1719.2 1947.1C1708.51 1947.55 1698.46 1952.23 1691.27 1960.12C1684.08 1968 1680.34 1978.44 1680.87 1989.13C1681.4 1999.83 1686.16 2009.91 1694.1 2017.15L1704.27 2006C1699.3 2001.48 1696.33 1995.18 1696 1988.49C1695.66 1981.81 1698 1975.29 1702.5 1970.36C1706.99 1965.43 1713.27 1962.51 1719.96 1962.22C1726.64 1961.94 1733.19 1964.33 1738.15 1968.85L1748.32 1957.71Z" fill="#FFF353"/>
<g filter="url(#filter16_f_169_2)">
<path d="M0 4858.53L6.5353 4404L1920 4429.47L1913.46 4884L0 4858.53Z" fill="white" fill-opacity="0.5"/>
</g>
<path d="M1703.06 2614.18L1694.08 2608.99L1702.83 2603.88C1703.66 2603.43 1704.37 2602.76 1704.87 2601.96C1705.5 2600.94 1705.77 2599.73 1705.64 2598.54C1705.5 2597.35 1704.97 2596.24 1704.12 2595.39C1703.28 2594.54 1702.17 2593.99 1700.97 2593.84C1699.78 2593.69 1698.56 2593.94 1697.53 2594.55L1688.89 2599.64V2589.35C1688.89 2587.93 1688.32 2586.57 1687.31 2585.57C1686.3 2584.56 1684.93 2584 1683.5 2584C1682.07 2584 1680.7 2584.56 1679.69 2585.57C1678.68 2586.57 1678.11 2587.93 1678.11 2589.35V2599.64L1669.4 2594.55C1668.79 2594.14 1668.1 2593.86 1667.37 2593.72C1666.64 2593.59 1665.9 2593.61 1665.18 2593.77C1664.46 2593.93 1663.78 2594.24 1663.19 2594.68C1662.59 2595.12 1662.1 2595.67 1661.73 2596.3C1661.35 2596.94 1661.12 2597.64 1661.04 2598.37C1660.95 2599.1 1661.02 2599.84 1661.23 2600.54C1661.45 2601.25 1661.8 2601.9 1662.28 2602.46C1662.76 2603.02 1663.35 2603.47 1664.01 2603.79L1672.99 2608.99L1664.1 2614.09C1663.26 2614.55 1662.56 2615.22 1662.05 2616.02C1661.43 2617.04 1661.17 2618.24 1661.31 2619.43C1661.45 2620.61 1661.98 2621.72 1662.83 2622.56C1663.67 2623.41 1664.78 2623.96 1665.97 2624.11C1667.16 2624.26 1668.37 2624.02 1669.4 2623.41L1678.11 2618.34V2628.45C1678.07 2629.59 1678.39 2630.71 1679.04 2631.66C1679.69 2632.6 1680.62 2633.31 1681.7 2633.69C1682.52 2633.98 1683.39 2634.07 1684.24 2633.95C1685.1 2633.83 1685.91 2633.51 1686.62 2633.01C1687.32 2632.51 1687.9 2631.86 1688.29 2631.09C1688.69 2630.33 1688.89 2629.48 1688.89 2628.62V2618.34L1697.6 2623.43C1698.21 2623.84 1698.9 2624.12 1699.63 2624.25C1700.35 2624.39 1701.1 2624.37 1701.82 2624.21C1702.54 2624.04 1703.22 2623.73 1703.81 2623.3C1704.41 2622.86 1704.9 2622.31 1705.27 2621.67C1705.64 2621.04 1705.88 2620.33 1705.96 2619.61C1706.05 2618.88 1705.98 2618.14 1705.77 2617.43C1705.55 2616.73 1705.2 2616.08 1704.72 2615.52C1704.24 2614.96 1703.65 2614.51 1702.99 2614.18H1703.06ZM1701.89 2619.7C1701.77 2619.9 1701.61 2620.08 1701.43 2620.22C1701.24 2620.36 1701.02 2620.47 1700.8 2620.53C1700.57 2620.59 1700.33 2620.6 1700.09 2620.57C1699.86 2620.54 1699.63 2620.46 1699.43 2620.34L1685.3 2612.11V2628.62C1685.3 2629.1 1685.11 2629.55 1684.77 2629.89C1684.43 2630.22 1683.98 2630.41 1683.5 2630.41C1683.02 2630.41 1682.57 2630.22 1682.23 2629.89C1681.89 2629.55 1681.7 2629.1 1681.7 2628.62V2612.11L1667.57 2620.34C1667.16 2620.52 1666.7 2620.55 1666.28 2620.42C1665.86 2620.28 1665.5 2619.99 1665.28 2619.61C1665.05 2619.23 1664.98 2618.78 1665.07 2618.35C1665.16 2617.91 1665.41 2617.53 1665.77 2617.27L1679.91 2608.99L1665.72 2600.71C1665.49 2600.6 1665.28 2600.45 1665.12 2600.27C1664.95 2600.08 1664.82 2599.86 1664.75 2599.62C1664.67 2599.39 1664.65 2599.14 1664.67 2598.89C1664.7 2598.64 1664.78 2598.4 1664.91 2598.18C1665.03 2597.97 1665.2 2597.78 1665.41 2597.63C1665.61 2597.49 1665.84 2597.39 1666.09 2597.33C1666.33 2597.28 1666.59 2597.28 1666.83 2597.33C1667.08 2597.39 1667.31 2597.49 1667.51 2597.64L1681.7 2605.87V2589.35C1681.7 2588.88 1681.89 2588.43 1682.23 2588.09C1682.57 2587.76 1683.02 2587.57 1683.5 2587.57C1683.98 2587.57 1684.43 2587.76 1684.77 2588.09C1685.11 2588.43 1685.3 2588.88 1685.3 2589.35V2605.87L1699.43 2597.62C1699.84 2597.44 1700.29 2597.41 1700.72 2597.55C1701.14 2597.68 1701.5 2597.97 1701.72 2598.35C1701.95 2598.73 1702.02 2599.18 1701.93 2599.61C1701.84 2600.05 1701.59 2600.43 1701.23 2600.69L1687.09 2608.99L1701.28 2617.27C1701.68 2617.52 1701.97 2617.91 1702.09 2618.36C1702.2 2618.82 1702.13 2619.3 1701.89 2619.7Z" fill="#FF6E00"/>
</g>
<defs>
<filter id="filter0_f_169_2" x="-244" y="313" width="528" height="1219" filterUnits="userSpaceOnUse" color-interpolation-filters="sRGB">
<feFlood flood-opacity="0" result="BackgroundImageFix"/>
<feBlend mode="normal" in="SourceGraphic" in2="BackgroundImageFix" result="shape"/>
<feGaussianBlur stdDeviation="50" result="effect1_foregroundBlur_169_2"/>
</filter>
<filter id="filter1_f_169_2" x="-244" y="4031" width="528" height="1219" filterUnits="userSpaceOnUse" color-interpolation-filters="sRGB">
<feFlood flood-opacity="0" result="BackgroundImageFix"/>
<feBlend mode="normal" in="SourceGraphic" in2="BackgroundImageFix" result="shape"/>
<feGaussianBlur stdDeviation="50" result="effect1_foregroundBlur_169_2"/>
</filter>
<filter id="filter2_f_169_2" x="1048" y="3584" width="779" height="830" filterUnits="userSpaceOnUse" color-interpolation-filters="sRGB">
<feFlood flood-opacity="0" result="BackgroundImageFix"/>
<feBlend mode="normal" in="SourceGraphic" in2="BackgroundImageFix" result="shape"/>
<feGaussianBlur stdDeviation="50" result="effect1_foregroundBlur_169_2"/>
</filter>
<filter id="filter3_f_169_2" x="1172" y="3249" width="779" height="830" filterUnits="userSpaceOnUse" color-interpolation-filters="sRGB">
<feFlood flood-opacity="0" result="BackgroundImageFix"/>
<feBlend mode="normal" in="SourceGraphic" in2="BackgroundImageFix" result="shape"/>
<feGaussianBlur stdDeviation="50" result="effect1_foregroundBlur_169_2"/>
</filter>
<filter id="filter4_f_169_2" x="137" y="3343" width="470" height="792" filterUnits="userSpaceOnUse" color-interpolation-filters="sRGB">
<feFlood flood-opacity="0" result="BackgroundImageFix"/>
<feBlend mode="normal" in="SourceGraphic" in2="BackgroundImageFix" result="shape"/>
<feGaussianBlur stdDeviation="50" result="effect1_foregroundBlur_169_2"/>
</filter>
<filter id="filter5_f_169_2" x="1036" y="-118" width="779" height="830" filterUnits="userSpaceOnUse" color-interpolation-filters="sRGB">
<feFlood flood-opacity="0" result="BackgroundImageFix"/>
<feBlend mode="normal" in="SourceGraphic" in2="BackgroundImageFix" result="shape"/>
<feGaussianBlur stdDeviation="50" result="effect1_foregroundBlur_169_2"/>
</filter>
<filter id="filter6_f_169_2" x="1160" y="-453" width="779" height="830" filterUnits="userSpaceOnUse" color-interpolation-filters="sRGB">
<feFlood flood-opacity="0" result="BackgroundImageFix"/>
<feBlend mode="normal" in="SourceGraphic" in2="BackgroundImageFix" result="shape"/>
<feGaussianBlur stdDeviation="50" result="effect1_foregroundBlur_169_2"/>
</filter>
<filter id="filter7_f_169_2" x="137" y="-375" width="470" height="792" filterUnits="userSpaceOnUse" color-interpolation-filters="sRGB">
<feFlood flood-opacity="0" result="BackgroundImageFix"/>
<feBlend mode="normal" in="SourceGraphic" in2="BackgroundImageFix" result="shape"/>
<feGaussianBlur stdDeviation="50" result="effect1_foregroundBlur_169_2"/>
</filter>
<filter id="filter8_f_169_2" x="1201" y="1024" width="1223.44" height="542.06" filterUnits="userSpaceOnUse" color-interpolation-filters="sRGB">
<feFlood flood-opacity="0" result="BackgroundImageFix"/>
<feBlend mode="normal" in="SourceGraphic" in2="BackgroundImageFix" result="shape"/>
<feGaussianBlur stdDeviation="50" result="effect1_foregroundBlur_169_2"/>
</filter>
<filter id="filter9_f_169_2" x="1205" y="1206" width="1222.38" height="465.57" filterUnits="userSpaceOnUse" color-interpolation-filters="sRGB">
<feFlood flood-opacity="0" result="BackgroundImageFix"/>
<feBlend mode="normal" in="SourceGraphic" in2="BackgroundImageFix" result="shape"/>
<feGaussianBlur stdDeviation="50" result="effect1_foregroundBlur_169_2"/>
</filter>
<filter id="filter10_f_169_2" x="137" y="1335" width="470" height="792" filterUnits="userSpaceOnUse" color-interpolation-filters="sRGB">
<feFlood flood-opacity="0" result="BackgroundImageFix"/>
<feBlend mode="normal" in="SourceGraphic" in2="BackgroundImageFix" result="shape"/>
<feGaussianBlur stdDeviation="50" result="effect1_foregroundBlur_169_2"/>
</filter>
<filter id="filter11_f_169_2" x="-372" y="1858" width="779" height="830" filterUnits="userSpaceOnUse" color-interpolation-filters="sRGB">
<feFlood flood-opacity="0" result="BackgroundImageFix"/>
<feBlend mode="normal" in="SourceGraphic" in2="BackgroundImageFix" result="shape"/>
<feGaussianBlur stdDeviation="50" result="effect1_foregroundBlur_169_2"/>
</filter>
<filter id="filter12_f_169_2" x="-248" y="1523" width="779" height="830" filterUnits="userSpaceOnUse" color-interpolation-filters="sRGB">
<feFlood flood-opacity="0" result="BackgroundImageFix"/>
<feBlend mode="normal" in="SourceGraphic" in2="BackgroundImageFix" result="shape"/>
<feGaussianBlur stdDeviation="50" result="effect1_foregroundBlur_169_2"/>
</filter>
<filter id="filter13_f_169_2" x="-219" y="3016" width="1223.44" height="542.06" filterUnits="userSpaceOnUse" color-interpolation-filters="sRGB">
<feFlood flood-opacity="0" result="BackgroundImageFix"/>
<feBlend mode="normal" in="SourceGraphic" in2="BackgroundImageFix" result="shape"/>
<feGaussianBlur stdDeviation="50" result="effect1_foregroundBlur_169_2"/>
</filter>
<filter id="filter14_f_169_2" x="-215" y="3198" width="1222.38" height="465.57" filterUnits="userSpaceOnUse" color-interpolation-filters="sRGB">
<feFlood flood-opacity="0" result="BackgroundImageFix"/>
<feBlend mode="normal" in="SourceGraphic" in2="BackgroundImageFix" result="shape"/>
<feGaussianBlur stdDeviation="50" result="effect1_foregroundBlur_169_2"/>
</filter>
<filter id="filter15_f_169_2" x="1636" y="2036" width="528" height="1219" filterUnits="userSpaceOnUse" color-interpolation-filters="sRGB">
<feFlood flood-opacity="0" result="BackgroundImageFix"/>
<feBlend mode="normal" in="SourceGraphic" in2="BackgroundImageFix" result="shape"/>
<feGaussianBlur stdDeviation="50" result="effect1_foregroundBlur_169_2"/>
</filter>
<filter id="filter16_f_169_2" x="-100" y="4304" width="2120" height="680" filterUnits="userSpaceOnUse" color-interpolation-filters="sRGB">
<feFlood flood-opacity="0" result="BackgroundImageFix"/>
<feBlend mode="normal" in="SourceGraphic" in2="BackgroundImageFix" result="shape"/>
<feGaussianBlur stdDeviation="50" result="effect1_foregroundBlur_169_2"/>
</filter>
<clipPath id="clip0_169_2">
<rect width="1920" height="4884" fill="white"/>
</clipPath>
</defs>
</svg>
