<svg width="89" height="63" viewBox="0 0 89 63" fill="none" xmlns="http://www.w3.org/2000/svg">
<path d="M89 54.5465V8.53064C89 4.28695 85.4944 0.861328 81.1517 0.861328H7.84832C3.50559 0.861328 0 4.28695 0 8.53064V54.5465C0 58.7902 3.50559 62.2158 7.84832 62.2158H81.1517C85.4944 62.2158 89 58.7902 89 54.5465ZM82.1458 7.96822C83.8724 9.65547 82.9306 11.3938 81.9888 12.263L60.746 31.2829L81.1517 52.0412C81.7795 52.757 82.1981 53.8818 81.4656 54.6488C80.7854 55.4668 79.2158 55.4157 78.5356 54.9044L55.6708 35.8334L44.4738 45.8035L33.3292 35.8334L10.4644 54.9044C9.78424 55.4157 8.21458 55.4668 7.53439 54.6488C6.80188 53.8818 7.22046 52.757 7.84832 52.0412L28.254 31.2829L7.01117 12.263C6.06937 11.3938 5.12757 9.65547 6.8542 7.96822C8.58083 6.28097 10.3598 7.09904 11.8248 8.32613L44.4738 34.095L77.1752 8.32613C78.6402 7.09904 80.4192 6.28097 82.1458 7.96822V7.96822Z" fill="#FF6E00"/>
</svg>
