<svg width="161" height="179" viewBox="0 0 161 179" fill="none" xmlns="http://www.w3.org/2000/svg">
<path d="M17.8889 178.889H143.111C152.977 178.889 161 170.866 161 161V26.8333C161 16.9676 152.977 8.94444 143.111 8.94444H125.222C125.222 6.57223 124.28 4.29718 122.602 2.61977C120.925 0.942358 118.65 0 116.278 0H44.7222C42.35 0 40.075 0.942358 38.3975 2.61977C36.7201 4.29718 35.7778 6.57223 35.7778 8.94444H17.8889C8.02317 8.94444 0 16.9676 0 26.8333V161C0 170.866 8.02317 178.889 17.8889 178.889ZM17.8889 26.8333H35.7778V44.7222H125.222V26.8333H143.111V161H17.8889V26.8333Z" fill="#FF6E00"/>
<path d="M71.5549 103.63L55.5176 87.5926L42.8701 100.24L71.5549 128.925L118.129 82.3512L105.481 69.7037L71.5549 103.63Z" fill="#FF6E00"/>
</svg>
