<svg width="85" height="83" viewBox="0 0 85 83" fill="none" xmlns="http://www.w3.org/2000/svg">
<path d="M42.4886 27.5874C34.6847 27.5874 28.3161 33.7897 28.3161 41.3899C28.3161 48.9901 34.6847 55.1924 42.4886 55.1924C50.2925 55.1924 56.661 48.9901 56.661 41.3899C56.661 33.7897 50.2925 27.5874 42.4886 27.5874ZM84.9953 41.3899C84.9953 35.6742 85.0484 30.0103 84.7188 24.305C84.3892 17.6782 82.837 11.7968 77.8612 6.95093C72.8748 2.09468 66.8465 0.593284 60.042 0.272296C54.1731 -0.0486926 48.3574 0.00307988 42.4992 0.00307988C36.6303 0.00307988 30.8147 -0.0486926 24.9564 0.272296C18.152 0.593284 12.113 2.10504 7.13723 6.95093C2.15082 11.8072 0.609185 17.6782 0.279594 24.305C-0.0499977 30.0207 0.00316242 35.6846 0.00316242 41.3899C0.00316242 47.0952 -0.0499977 52.7695 0.279594 58.4748C0.609185 65.1016 2.16146 70.983 7.13723 75.8289C12.1236 80.6851 18.152 82.1865 24.9564 82.5075C30.8253 82.8285 36.641 82.7767 42.4992 82.7767C48.3681 82.7767 54.1838 82.8285 60.042 82.5075C66.8465 82.1865 72.8854 80.6747 77.8612 75.8289C82.8476 70.9726 84.3892 65.1016 84.7188 58.4748C85.0591 52.7695 84.9953 47.1056 84.9953 41.3899V41.3899ZM42.4886 62.6269C30.4213 62.6269 20.6824 53.1422 20.6824 41.3899C20.6824 29.6376 30.4213 20.1529 42.4886 20.1529C54.5559 20.1529 64.2948 29.6376 64.2948 41.3899C64.2948 53.1422 54.5559 62.6269 42.4886 62.6269ZM65.1879 24.2429C62.3704 24.2429 60.0951 22.027 60.0951 19.2831C60.0951 16.5392 62.3704 14.3233 65.1879 14.3233C68.0053 14.3233 70.2806 16.5392 70.2806 19.2831C70.2814 19.9347 70.1503 20.58 69.8946 21.1821C69.639 21.7842 69.2639 22.3313 68.7908 22.792C68.3178 23.2527 67.756 23.6181 67.1378 23.867C66.5195 24.116 65.8569 24.2437 65.1879 24.2429V24.2429Z" fill="#FF6E00"/>
</svg>
