<svg width="917" height="396" viewBox="0 0 917 396" fill="none" xmlns="http://www.w3.org/2000/svg">
<path d="M81.688 5.52502C96.003 5.52502 108.762 8.248 119.965 13.694C131.324 18.985 140.504 26.531 147.506 36.334C154.663 46.136 159.409 57.573 161.743 70.643H107.128C104.639 65.197 101.06 60.996 96.392 58.039C91.88 54.927 86.667 53.371 80.755 53.371C72.041 53.371 65.117 56.639 59.982 63.174C55.003 69.709 52.514 78.5 52.514 89.548C52.514 100.595 55.003 109.386 59.982 115.921C65.117 122.456 72.041 125.724 80.755 125.724C86.667 125.724 91.88 124.246 96.392 121.289C101.06 118.178 104.639 113.899 107.128 108.453H161.743C159.409 121.523 154.663 132.959 147.506 142.762C140.504 152.564 131.324 160.189 119.965 165.635C108.762 170.925 96.003 173.57 81.688 173.57C65.039 173.57 50.569 170.069 38.277 163.067C25.985 155.91 16.493 145.952 9.80197 133.193C3.26697 120.434 0 105.885 0 89.548C0 73.21 3.26697 58.662 9.80197 45.903C16.493 33.144 25.985 23.263 38.277 16.262C50.569 9.10402 65.039 5.52502 81.688 5.52502ZM444.003 172.403L412.728 113.121V172.403H360.914V7.15903H437.935C451.316 7.15903 462.753 9.57101 472.244 14.394C481.735 19.062 488.815 25.52 493.483 33.766C498.306 41.857 500.718 51.038 500.718 61.307C500.718 72.354 497.606 82.157 491.382 90.715C485.314 99.273 476.523 105.419 465.009 109.153L500.952 172.403H444.003ZM412.728 78.578H433.267C438.246 78.578 441.98 77.489 444.47 75.311C446.959 72.977 448.204 69.398 448.204 64.574C448.204 60.218 446.882 56.795 444.237 54.305C441.747 51.815 438.09 50.571 433.267 50.571H412.728V78.578ZM569.085 48.237V68.776H620.432V107.753H569.085V131.092H627.434V172.403H517.271V7.15903H627.434V48.237H569.085ZM698.778 48.237V68.776H750.118V107.753H698.778V131.092H757.118V172.403H646.96V7.15903H757.118V48.237H698.778ZM859.738 172.403L828.468 113.121V172.403H776.648V7.15903H853.668C867.048 7.15903 878.488 9.57101 887.978 14.394C897.468 19.062 904.548 25.52 909.218 33.766C914.038 41.857 916.458 51.038 916.458 61.307C916.458 72.354 913.338 82.157 907.118 90.715C901.048 99.273 892.258 105.419 880.748 109.153L916.688 172.403H859.738ZM828.468 78.578H848.998C853.978 78.578 857.718 77.489 860.208 75.311C862.698 72.977 863.938 69.398 863.938 64.574C863.938 60.218 862.618 56.795 859.968 54.305C857.478 51.815 853.828 50.571 848.998 50.571H828.468V78.578ZM56.481 271.237V291.776H107.828V330.753H56.481V354.092H114.83V395.403H4.668V230.159H114.83V271.237H56.481ZM239.618 395.403L209.277 352.458L184.07 395.403H125.021L179.402 310.214L122.687 230.159H184.07L213.245 271.47L237.518 230.159H296.567L243.119 313.715L301.001 395.403H239.618ZM364.408 342.889V395.403H312.594V230.159H384.947C405.174 230.159 420.656 235.294 431.393 245.563C442.284 255.833 447.73 269.603 447.73 286.874C447.73 297.299 445.318 306.791 440.495 315.348C435.671 323.751 428.514 330.441 419.023 335.42C409.687 340.4 398.328 342.889 384.947 342.889H364.408ZM379.112 302.045C389.848 302.045 395.216 296.988 395.216 286.874C395.216 276.76 389.848 271.704 379.112 271.704H364.408V302.045H379.112Z" fill="black"/>
<path d="M350.013 172.786H156.63L253.321 0L350.013 172.786Z" fill="#F40010"/>
<path d="M546.257 395.92C592.706 395.92 630.361 358.266 630.361 311.816C630.361 265.366 592.706 227.712 546.257 227.712C499.807 227.712 462.152 265.366 462.152 311.816C462.152 358.266 499.807 395.92 546.257 395.92Z" fill="#F40010"/>
</svg>
