<svg width="182" height="182" viewBox="0 0 182 182" fill="none" xmlns="http://www.w3.org/2000/svg">
<path fill-rule="evenodd" clip-rule="evenodd" d="M0 91C0 115.135 9.58747 138.281 26.6533 155.347C43.7191 172.413 66.8653 182 91 182C115.135 182 138.281 172.413 155.347 155.347C172.413 138.281 182 115.135 182 91C182 66.8653 172.413 43.7191 155.347 26.6533C138.281 9.58747 115.135 0 91 0C66.8653 0 43.7191 9.58747 26.6533 26.6533C9.58747 43.7191 0 66.8653 0 91ZM166.4 91C166.4 110.997 158.456 130.176 144.316 144.316C130.176 158.456 110.997 166.4 91 166.4C71.0027 166.4 51.8244 158.456 37.6842 144.316C23.5439 130.176 15.6 110.997 15.6 91C15.6 71.0027 23.5439 51.8244 37.6842 37.6842C51.8244 23.5439 71.0027 15.6 91 15.6C110.997 15.6 130.176 23.5439 144.316 37.6842C158.456 51.8244 166.4 71.0027 166.4 91Z" fill="#FF6E00"/>
<path fill-rule="evenodd" clip-rule="evenodd" d="M52 91.0001C52 138.029 67.5064 176.8 91 176.8C114.494 176.8 130 138.029 130 91.0001C130 43.9713 114.494 5.20007 91 5.20007C67.5064 5.20007 52 43.9713 52 91.0001ZM114.4 91.0001C114.4 130.125 101.972 161.2 91 161.2C80.028 161.2 67.6 130.125 67.6 91.0001C67.6 51.8753 80.028 20.8001 91 20.8001C101.972 20.8001 114.4 51.8753 114.4 91.0001Z" fill="#FF6E00"/>
<path d="M24.461 43.8567L34.9234 32.2919C35.9634 33.2279 37.097 34.1639 38.3034 35.0687C51.5218 44.9695 72.6234 51.0847 95.6594 51.0847C115.326 51.0847 133.64 46.6439 146.942 39.0415C150.145 37.2111 152.995 35.2247 155.459 33.1135L165.589 44.9799C162.205 47.8503 158.555 50.3924 154.69 52.5719C138.923 61.5991 117.936 66.6743 95.6594 66.6743C69.4306 66.6743 45.0634 59.6231 28.9434 47.5487C27.3934 46.3875 25.8976 45.1555 24.461 43.8567ZM24.461 138.309L34.9234 149.874C35.9634 148.928 37.097 148.002 38.3034 147.097C51.5218 137.197 72.6234 131.081 95.6594 131.081C115.326 131.081 133.64 135.522 146.942 143.125C150.145 144.955 152.995 146.941 155.459 149.053L165.589 137.186C162.201 134.321 158.552 131.78 154.69 129.594C138.923 120.567 117.936 115.492 95.6594 115.492C69.4306 115.492 45.0634 122.543 28.9434 134.617C27.3933 135.779 25.8976 137.011 24.461 138.309ZM5.2002 98.7999V83.1999H176.8V98.7999H5.2002Z" fill="#FF6E00"/>
</svg>
