<svg width="192" height="193" viewBox="0 0 192 193" fill="none" xmlns="http://www.w3.org/2000/svg">
<path fill-rule="evenodd" clip-rule="evenodd" d="M139.99 115.655C137.595 114.457 125.851 108.683 123.664 107.879C121.478 107.083 119.886 106.689 118.287 109.085C116.695 111.466 112.121 116.854 110.73 118.446C109.332 120.046 107.941 120.239 105.554 119.049C103.166 117.843 95.4652 115.326 86.3415 107.188C79.2435 100.851 74.4445 93.0262 73.0539 90.6298C71.6632 88.2414 72.9011 86.9467 74.0989 85.7565C75.176 84.687 76.4863 82.9661 77.6841 81.5749C78.8818 80.1756 79.2757 79.1785 80.0715 77.5782C80.8753 75.9859 80.4734 74.5947 79.8705 73.3965C79.2757 72.1983 74.5008 60.4334 72.5073 55.6486C70.57 50.9925 68.6005 51.6277 67.1375 51.5473C65.7388 51.483 64.1472 51.4669 62.5556 51.4669C60.964 51.4669 58.3756 52.062 56.1891 54.4584C53.9946 56.8468 47.8291 62.6287 47.8291 74.3937C47.8291 86.1506 56.382 97.5134 57.5798 99.1137C58.7775 100.706 74.4204 124.847 98.3832 135.197C104.091 137.657 108.536 139.129 112 140.223C117.724 142.048 122.933 141.791 127.048 141.172C131.63 140.488 141.18 135.39 143.174 129.809C145.159 124.228 145.159 119.443 144.564 118.446C143.97 117.449 142.378 116.854 139.982 115.655H139.99ZM96.4057 175.188H96.3736C82.1408 175.19 68.1695 171.363 55.9238 164.106L53.03 162.385L22.9499 170.282L30.9804 140.946L29.0913 137.939C21.1343 125.268 16.9234 110.603 16.9452 95.6397C16.9612 51.8127 52.6039 16.156 96.4379 16.156C117.66 16.156 137.611 24.4389 152.611 39.4607C160.009 46.8315 165.873 55.5968 169.864 65.2495C173.854 74.9021 175.892 85.2505 175.858 95.696C175.842 139.523 140.199 175.188 96.4057 175.188ZM164.026 28.0496C155.169 19.1308 144.631 12.0591 133.022 7.24425C121.413 2.42942 108.965 -0.0327798 96.3977 0.000329527C43.7134 0.000329527 0.819927 42.9026 0.80385 95.6317C0.779437 112.413 5.1798 128.903 13.5609 143.439L0 193L50.6747 179.699C64.6928 187.34 80.4018 191.343 96.3655 191.343H96.4057C149.09 191.343 191.983 148.441 192 95.704C192.038 83.1372 189.586 70.6873 184.784 59.0746C179.983 47.4619 172.927 36.9169 164.026 28.0496Z" fill="#FF6E00"/>
</svg>
