<svg width="102" height="67" viewBox="0 0 102 67" fill="none" xmlns="http://www.w3.org/2000/svg">
<path d="M99.8157 11.0995C99.2385 9.09427 98.1141 7.27886 96.5622 5.84624C94.9664 4.36955 93.0105 3.31325 90.8792 2.77702C82.9027 0.729496 50.9455 0.729496 50.9455 0.729496C37.6229 0.581879 24.3036 1.23114 11.0628 2.67361C8.93139 3.24945 6.97918 4.32936 5.37978 5.81728C3.80826 7.28984 2.66997 9.10573 2.07533 11.0953C0.646917 18.5895 -0.0471067 26.1988 0.0026214 33.8208C-0.048347 41.4359 0.643973 49.0428 2.07533 56.5462C2.65722 58.5275 3.79127 60.3352 5.36704 61.7953C6.94281 63.2555 8.9051 64.3103 11.0628 64.8687C19.1455 66.9121 50.9455 66.9121 50.9455 66.9121C64.285 67.0599 77.6213 66.4106 90.8792 64.9679C93.0105 64.4317 94.9664 63.3754 96.5622 61.8987C98.1136 60.4664 99.2366 58.6507 99.8114 56.6455C101.277 49.1543 101.99 41.5418 101.939 33.9159C102.05 26.2578 101.338 18.6094 99.8157 11.0953V11.0995ZM40.7858 47.9838V19.6618L67.3743 33.8249L40.7858 47.9838Z" fill="#FF6E00"/>
</svg>
