<svg width="130" height="1021" viewBox="0 0 130 1021" fill="none" xmlns="http://www.w3.org/2000/svg">
<path d="M15.794 925.794H0V933.69H23.69V910H15.794V925.794Z" fill="#FF6E00"/>
<path d="M59.226 925.794H43.433V933.69H67.123V910H59.226V925.794Z" fill="#FF6E00"/>
<path d="M102.659 910V925.794H86.865V933.69H110.556V910H102.659Z" fill="#FF6E00"/>
<path d="M15.794 969.226H0V977.123H23.69V953.432H15.794V969.226Z" fill="#FF6E00"/>
<path d="M59.226 969.226H43.433V977.123H67.123V953.432H59.226V969.226Z" fill="#FF6E00"/>
<path d="M102.659 969.226H86.865V977.123H110.556V953.432H102.659V969.226Z" fill="#FF6E00"/>
<path d="M15.794 1012.66H0V1020.55H23.69V996.865H15.794V1012.66Z" fill="#FF6E00"/>
<path d="M59.226 1012.66H43.433V1020.55H67.123V996.865H59.226V1012.66Z" fill="#FF6E00"/>
<path d="M102.659 1012.66H86.865V1020.55H110.556V996.865H102.659V1012.66Z" fill="#FF6E00"/>
<path d="M129.319 10.708C121.377 3.46496 110.905 -0.351031 100.205 0.100969C89.506 0.552969 79.456 5.23498 72.267 13.117C65.078 21 61.337 31.437 61.869 42.132C62.401 52.828 67.162 62.906 75.104 70.149L85.269 59.004C80.305 54.477 77.33 48.178 76.998 41.494C76.665 34.809 79.003 28.286 83.496 23.359C87.989 18.433 94.27 15.506 100.957 15.224C107.645 14.941 114.19 17.326 119.153 21.853L129.319 10.708Z" fill="#FFF353"/>
<path d="M84.06 667.184L75.079 661.99L83.826 656.885C84.663 656.427 85.368 655.763 85.874 654.957C86.505 653.937 86.775 652.735 86.639 651.545C86.503 650.355 85.969 649.244 85.123 648.391C84.277 647.538 83.167 646.991 81.971 646.839C80.776 646.686 79.563 646.936 78.528 647.549L69.888 652.636V642.355C69.888 640.935 69.321 639.573 68.31 638.568C67.3 637.564 65.929 637 64.5 637C63.071 637 61.7 637.564 60.69 638.568C59.679 639.573 59.112 640.935 59.112 642.355V652.636L50.401 647.549C49.788 647.139 49.097 646.858 48.371 646.724C47.645 646.59 46.899 646.606 46.179 646.771C45.46 646.935 44.782 647.245 44.187 647.682C43.593 648.118 43.096 648.67 42.726 649.305C42.355 649.941 42.121 650.645 42.036 651.374C41.951 652.103 42.018 652.842 42.232 653.544C42.447 654.246 42.804 654.897 43.282 655.457C43.761 656.016 44.349 656.472 45.012 656.795L53.993 661.99L45.102 667.095C44.265 667.553 43.56 668.216 43.055 669.022C42.431 670.043 42.169 671.24 42.309 672.426C42.449 673.611 42.983 674.716 43.827 675.565C44.671 676.414 45.776 676.958 46.967 677.112C48.158 677.265 49.367 677.019 50.401 676.412L59.112 671.343V681.446C59.069 682.587 59.395 683.712 60.041 684.656C60.687 685.6 61.62 686.314 62.704 686.694C63.518 686.98 64.39 687.067 65.245 686.949C66.101 686.83 66.915 686.508 67.619 686.011C68.324 685.514 68.898 684.856 69.292 684.093C69.687 683.329 69.892 682.483 69.888 681.624V671.343L78.599 676.43C79.212 676.84 79.903 677.121 80.629 677.255C81.355 677.389 82.101 677.373 82.821 677.209C83.54 677.044 84.218 676.734 84.813 676.298C85.407 675.862 85.904 675.309 86.274 674.674C86.645 674.039 86.879 673.335 86.964 672.606C87.049 671.876 86.982 671.138 86.768 670.435C86.553 669.733 86.196 669.082 85.718 668.523C85.239 667.963 84.651 667.508 83.988 667.184H84.06ZM82.892 672.7C82.773 672.903 82.615 673.08 82.427 673.223C82.239 673.365 82.025 673.469 81.796 673.528C81.567 673.588 81.329 673.602 81.095 673.57C80.861 673.538 80.635 673.461 80.431 673.342L66.296 665.113V681.624C66.296 682.098 66.107 682.552 65.77 682.887C65.433 683.221 64.976 683.409 64.5 683.409C64.024 683.409 63.567 683.221 63.23 682.887C62.893 682.552 62.704 682.098 62.704 681.624V665.113L48.569 673.342C48.163 673.524 47.705 673.55 47.281 673.416C46.858 673.281 46.5 672.995 46.276 672.613C46.053 672.231 45.98 671.78 46.071 671.347C46.163 670.915 46.413 670.532 46.772 670.272L60.908 661.99L46.719 653.707C46.49 653.605 46.285 653.455 46.118 653.269C45.95 653.082 45.824 652.863 45.748 652.625C45.671 652.387 45.646 652.136 45.673 651.888C45.7 651.639 45.779 651.4 45.906 651.184C46.032 650.968 46.202 650.781 46.406 650.634C46.61 650.488 46.842 650.386 47.088 650.334C47.334 650.283 47.588 650.283 47.834 650.335C48.079 650.387 48.311 650.49 48.515 650.637L62.704 658.866V642.355C62.704 641.882 62.893 641.428 63.23 641.093C63.567 640.758 64.024 640.57 64.5 640.57C64.976 640.57 65.433 640.758 65.77 641.093C66.107 641.428 66.296 641.882 66.296 642.355V658.866L80.431 650.619C80.837 650.437 81.295 650.411 81.719 650.546C82.142 650.681 82.5 650.967 82.724 651.349C82.947 651.731 83.02 652.182 82.929 652.614C82.837 653.046 82.587 653.43 82.228 653.69L68.092 661.99L82.281 670.272C82.683 670.516 82.972 670.908 83.086 671.362C83.201 671.816 83.131 672.296 82.892 672.7Z" fill="#FF6E00"/>
</svg>
