<svg width="454" height="795" viewBox="0 0 454 795" fill="none" xmlns="http://www.w3.org/2000/svg">
<path d="M307.29 711.836H97.38L202.34 524.488L307.29 711.836Z" fill="#F40010"/>
<path d="M291.33 606.922C284.92 606.926 278.54 607.586 272.27 608.889L323.64 700.806L339.22 728.698H201.96C213.93 766.665 249.46 794.269 291.33 794.269C342.98 794.269 385 752.245 385 700.595C385 648.946 342.98 606.922 291.33 606.922Z" fill="#FFF351"/>
<path fill-rule="evenodd" clip-rule="evenodd" d="M432.5 397.312C443.85 397.312 454.74 392.802 462.77 384.773C470.8 376.744 475.31 365.855 475.31 354.5C475.31 343.145 470.8 332.256 462.77 324.227C454.74 316.198 443.85 311.688 432.5 311.688C421.15 311.688 410.26 316.198 402.23 324.227C394.2 332.256 389.69 343.145 389.69 354.5C389.69 365.855 394.2 376.744 402.23 384.773C410.26 392.802 421.15 397.312 432.5 397.312ZM432.5 423C450.67 423 468.09 415.783 480.94 402.937C493.78 390.091 501 372.667 501 354.5C501 336.333 493.78 318.909 480.94 306.063C468.09 293.217 450.67 286 432.5 286C414.33 286 396.91 293.217 384.06 306.063C371.22 318.909 364 336.333 364 354.5C364 372.667 371.22 390.091 384.06 402.937C396.91 415.783 414.33 423 432.5 423Z" fill="#FF6E00"/>
<path d="M198 0C174.13 0 151.24 9.48199 134.36 26.36C117.48 43.239 108 66.131 108 90C108 113.869 117.48 136.761 134.36 153.64C151.24 170.518 174.13 180 198 180V146.25C183.08 146.25 168.77 140.324 158.23 129.775C147.68 119.226 141.75 104.918 141.75 90C141.75 75.082 147.68 60.774 158.23 50.225C168.77 39.676 183.08 33.75 198 33.75V0Z" fill="#FFF353"/>
<path d="M42.06 497.184L33.0799 491.99L41.8299 486.885C42.6599 486.427 43.37 485.763 43.87 484.957C44.51 483.937 44.77 482.735 44.64 481.545C44.5 480.355 43.97 479.244 43.12 478.391C42.28 477.538 41.17 476.991 39.97 476.839C38.78 476.686 37.56 476.936 36.53 477.549L27.89 482.636V472.355C27.89 470.935 27.32 469.573 26.31 468.568C25.3 467.564 23.93 467 22.5 467C21.07 467 19.6999 467.564 18.6899 468.568C17.6799 469.573 17.11 470.935 17.11 472.355V482.636L8.40001 477.549C7.79001 477.139 7.09998 476.858 6.36998 476.724C5.64998 476.59 4.90004 476.606 4.18004 476.771C3.46004 476.935 2.77993 477.245 2.18993 477.682C1.58993 478.118 1.09997 478.67 0.729966 479.305C0.359966 479.941 0.120024 480.645 0.0400244 481.374C-0.0499756 482.103 0.0199659 482.842 0.229966 483.544C0.449966 484.246 0.800015 484.897 1.28001 485.457C1.76001 486.016 2.35 486.472 3.01 486.795L11.99 491.99L3.09996 497.095C2.25996 497.553 1.56003 498.216 1.05003 499.022C0.430034 500.043 0.170044 501.24 0.310044 502.426C0.450044 503.611 0.979941 504.716 1.82994 505.565C2.66994 506.414 3.77996 506.958 4.96996 507.112C6.15996 507.265 7.37001 507.019 8.40001 506.412L17.11 501.343V511.446C17.07 512.587 17.39 513.712 18.04 514.656C18.69 515.6 19.6199 516.314 20.6999 516.694C21.5199 516.98 22.39 517.067 23.25 516.949C24.1 516.83 24.92 516.508 25.62 516.011C26.32 515.514 26.9 514.856 27.29 514.093C27.69 513.329 27.89 512.483 27.89 511.624V501.343L36.6 506.43C37.21 506.84 37.9 507.121 38.63 507.255C39.35 507.389 40.0999 507.373 40.8199 507.209C41.5399 507.044 42.22 506.734 42.81 506.298C43.41 505.862 43.9 505.309 44.27 504.674C44.64 504.039 44.8799 503.335 44.9599 502.606C45.0499 501.876 44.98 501.138 44.77 500.435C44.55 499.733 44.2 499.082 43.72 498.523C43.24 497.963 42.65 497.508 41.99 497.184H42.06ZM40.89 502.7C40.77 502.903 40.62 503.08 40.43 503.223C40.24 503.365 40.02 503.469 39.8 503.528C39.57 503.588 39.33 503.602 39.1 503.57C38.86 503.538 38.64 503.461 38.43 503.342L24.3 495.113V511.624C24.3 512.098 24.11 512.552 23.77 512.887C23.43 513.221 22.98 513.409 22.5 513.409C22.02 513.409 21.57 513.221 21.23 512.887C20.89 512.552 20.6999 512.098 20.6999 511.624V495.113L6.56993 503.342C6.15993 503.524 5.70001 503.55 5.28001 503.416C4.86001 503.281 4.50001 502.995 4.28001 502.613C4.05001 502.231 3.97993 501.78 4.06993 501.347C4.15993 500.915 4.41 500.532 4.77 500.272L18.91 491.99L4.71996 483.707C4.48996 483.605 4.27998 483.455 4.11998 483.269C3.94998 483.082 3.81999 482.863 3.74999 482.625C3.66999 482.387 3.65003 482.136 3.67003 481.888C3.70003 481.639 3.78002 481.4 3.91002 481.184C4.03002 480.968 4.20002 480.781 4.41002 480.634C4.61002 480.488 4.83995 480.386 5.08995 480.334C5.32995 480.283 5.58994 480.283 5.82994 480.335C6.07994 480.387 6.30999 480.49 6.50999 480.637L20.6999 488.866V472.355C20.6999 471.882 20.89 471.428 21.23 471.093C21.57 470.758 22.02 470.57 22.5 470.57C22.98 470.57 23.43 470.758 23.77 471.093C24.11 471.428 24.3 471.882 24.3 472.355V488.866L38.43 480.619C38.84 480.437 39.3 480.411 39.72 480.546C40.14 480.681 40.5 480.967 40.72 481.349C40.95 481.731 41.02 482.182 40.93 482.614C40.84 483.046 40.59 483.43 40.23 483.69L26.09 491.99L40.28 500.272C40.68 500.516 40.97 500.908 41.09 501.362C41.2 501.816 41.13 502.296 40.89 502.7Z" fill="#FF6E00"/>
</svg>
