<svg width="45" height="50" viewBox="0 0 45 50" fill="none" xmlns="http://www.w3.org/2000/svg">
<path d="M42.06 30.184L33.0799 24.99L41.8299 19.885C42.6599 19.427 43.37 18.763 43.87 17.957C44.51 16.937 44.77 15.735 44.64 14.545C44.5 13.355 43.97 12.244 43.12 11.391C42.28 10.538 41.17 9.99099 39.97 9.83899C38.78 9.68599 37.56 9.93601 36.53 10.549L27.89 15.636V5.35498C27.89 3.93498 27.32 2.57299 26.31 1.56799C25.3 0.563993 23.93 0 22.5 0C21.07 0 19.6999 0.563993 18.6899 1.56799C17.6799 2.57299 17.11 3.93498 17.11 5.35498V15.636L8.40001 10.549C7.79001 10.139 7.09998 9.858 6.36998 9.724C5.64998 9.59 4.90004 9.606 4.18004 9.771C3.46004 9.935 2.77993 10.245 2.18993 10.682C1.58993 11.118 1.09997 11.67 0.729966 12.305C0.359966 12.941 0.120024 13.645 0.0400244 14.374C-0.0499756 15.103 0.0199659 15.842 0.229966 16.544C0.449966 17.246 0.800015 17.897 1.28001 18.457C1.76001 19.016 2.35 19.472 3.01 19.795L11.99 24.99L3.09996 30.095C2.25996 30.553 1.56003 31.216 1.05003 32.022C0.430034 33.043 0.170044 34.24 0.310044 35.426C0.450044 36.611 0.979941 37.716 1.82994 38.565C2.66994 39.414 3.77996 39.958 4.96996 40.112C6.15996 40.265 7.37001 40.019 8.40001 39.412L17.11 34.343V44.446C17.07 45.587 17.39 46.712 18.04 47.656C18.69 48.6 19.6199 49.314 20.6999 49.694C21.5199 49.98 22.39 50.067 23.25 49.949C24.1 49.83 24.92 49.508 25.62 49.011C26.32 48.514 26.9 47.856 27.29 47.093C27.69 46.329 27.89 45.483 27.89 44.624V34.343L36.6 39.43C37.21 39.84 37.9 40.121 38.63 40.255C39.35 40.389 40.0999 40.373 40.8199 40.209C41.5399 40.044 42.22 39.734 42.81 39.298C43.41 38.862 43.9 38.309 44.27 37.674C44.64 37.039 44.8799 36.335 44.9599 35.606C45.0499 34.876 44.98 34.138 44.77 33.435C44.55 32.733 44.2 32.082 43.72 31.523C43.24 30.963 42.65 30.508 41.99 30.184H42.06ZM40.89 35.7C40.77 35.903 40.62 36.08 40.43 36.223C40.24 36.365 40.02 36.469 39.8 36.528C39.57 36.588 39.33 36.602 39.1 36.57C38.86 36.538 38.64 36.461 38.43 36.342L24.3 28.113V44.624C24.3 45.098 24.11 45.552 23.77 45.887C23.43 46.221 22.98 46.409 22.5 46.409C22.02 46.409 21.57 46.221 21.23 45.887C20.89 45.552 20.6999 45.098 20.6999 44.624V28.113L6.56993 36.342C6.15993 36.524 5.70001 36.55 5.28001 36.416C4.86001 36.281 4.50001 35.995 4.28001 35.613C4.05001 35.231 3.97993 34.78 4.06993 34.347C4.15993 33.915 4.41 33.532 4.77 33.272L18.91 24.99L4.71996 16.707C4.48996 16.605 4.27998 16.455 4.11998 16.269C3.94998 16.082 3.81999 15.863 3.74999 15.625C3.66999 15.387 3.65003 15.136 3.67003 14.888C3.70003 14.639 3.78002 14.4 3.91002 14.184C4.03002 13.968 4.20002 13.781 4.41002 13.634C4.61002 13.488 4.83995 13.386 5.08995 13.334C5.32995 13.283 5.58994 13.283 5.82994 13.335C6.07994 13.387 6.31 13.49 6.50999 13.637L20.6999 21.866V5.35498C20.6999 4.88198 20.89 4.42802 21.23 4.09302C21.57 3.75802 22.02 3.57001 22.5 3.57001C22.98 3.57001 23.43 3.75802 23.77 4.09302C24.11 4.42802 24.3 4.88198 24.3 5.35498V21.866L38.43 13.619C38.84 13.437 39.3 13.411 39.72 13.546C40.14 13.681 40.5 13.967 40.72 14.349C40.95 14.731 41.02 15.182 40.93 15.614C40.84 16.046 40.59 16.43 40.23 16.69L26.09 24.99L40.28 33.272C40.68 33.516 40.97 33.908 41.09 34.362C41.2 34.816 41.13 35.296 40.89 35.7Z" fill="#FF6E00"/>
</svg>
